# xmcd
#
# Track frame offsets: 
#        150
#        25534
#        49913
#        78727
#        103325
#        126922
#        154262
#        169037
#        187711
#        208323
#        230573
#        251632
#        274702
#        297154
#        319802
#
# Disc length: 4608 seconds
#
# Revision: 0
# Processed by: cddbd v1.5.2PL0 Copyright (c) Steve Scherf et al.
# Submitted via: ExactAudioCopy v1.0b3
#
DISCID=d811fe0f
DTITLE=今井美樹 - Premium Ivory -The Best Songs Of All Time- [Disc 1]
DYEAR=2015
DGENRE=JPop
TTITLE0=PIECE OF MY WISH
TTITLE1=瞳がほほえむから [Single Version]
TTITLE2=Miss You
TTITLE3=遠い街から
TTITLE4=Goodbye Yesterday
TTITLE5=PRIDE [Single Version]
TTITLE6=卒業写真
TTITLE7=春の日
TTITLE8=Blue Moon Blue [Re-Mix]
TTITLE9=愛の詩
TTITLE10=陽のあたる場所から
TTITLE11=雨のあと
TTITLE12=野性の風 [Single Version]
TTITLE13=夕陽が見える場所
TTITLE14=太陽のメロディー [2015 New Recordings]
EXTD=
EXTT0=
EXTT1=
EXTT2=
EXTT3=
EXTT4=
EXTT5=
EXTT6=
EXTT7=
EXTT8=
EXTT9=
EXTT10=
EXTT11=
EXTT12=
EXTT13=
EXTT14=
PLAYORDER=
